<svg xmlns="http://www.w3.org/2000/svg" viewBox="0 0 778 240" width="778" height="240"><g transform="translate(40 40) scale(1.6)"><polygon points="6.00,8.00 32.00,8.00 34.25,18.50 10.62,18.50" fill="#0B1220" />
<polygon points="68.00,8.00 94.00,8.00 89.38,18.50 65.75,18.50" fill="#0B1220" />
<polygon points="12.47,22.70 35.15,22.70 37.40,33.20 17.10,33.20" fill="#0B1220" />
<polygon points="64.85,22.70 87.53,22.70 82.90,33.20 62.60,33.20" fill="#0B1220" />
<polygon points="18.95,37.40 38.30,37.40 40.55,47.90 23.57,47.90" fill="#0B1220" />
<polygon points="61.70,37.40 81.05,37.40 76.42,47.90 59.45,47.90" fill="#0B1220" />
<polygon points="25.42,52.10 41.45,52.10 43.70,62.60 30.05,62.60" fill="#0B1220" />
<polygon points="58.55,52.10 74.58,52.10 69.95,62.60 56.30,62.60" fill="#0B1220" />
<polygon points="31.90,66.80 44.60,66.80 46.85,77.30 36.52,77.30" fill="#0B1220" />
<polygon points="55.40,66.80 68.10,66.80 63.48,77.30 53.15,77.30" fill="#0B1220" />
<polygon points="38.38,81.50 61.62,81.50 57.00,92.00 43.00,92.00" fill="#14B8A6" /></g><g transform="translate(250 70) scale(1.0)"><polygon points="0.00,0.00 15.93,0.00 44.00,77.90 72.07,0.00 88.00,0.00 51.97,100.00 36.03,100.00" fill="#0B1220" />
<rect x="114.00" y="0.00" width="13.50" height="100.00" fill="#0B1220" />
<rect x="114.00" y="0.00" width="64.00" height="13.50" fill="#0B1220" />
<rect x="114.00" y="43.25" width="53.76" height="13.50" fill="#0B1220" />
<rect x="114.00" y="86.50" width="64.00" height="13.50" fill="#0B1220" />
<rect x="204.00" y="0.00" width="72.00" height="13.50" fill="#0B1220" />
<rect x="233.25" y="0.00" width="13.50" height="100.00" fill="#0B1220" />
<rect x="302.00" y="0.00" width="72.00" height="13.50" fill="#0B1220" />
<rect x="331.25" y="0.00" width="13.50" height="100.00" fill="#0B1220" />
<polygon points="400.00,100.00 415.93,100.00 444.00,22.10 472.07,100.00 488.00,100.00 451.96,0.00 436.04,0.00" fill="#0B1220" /></g></svg>
