<svg xmlns="http://www.w3.org/2000/svg" viewBox="0 0 100 100" width="100" height="100"><rect width="100%" height="100%" fill="#0B1220"/><polygon points="6.00,8.00 32.00,8.00 34.25,18.50 10.62,18.50" fill="#F4F5F2" />
<polygon points="68.00,8.00 94.00,8.00 89.38,18.50 65.75,18.50" fill="#F4F5F2" />
<polygon points="12.47,22.70 35.15,22.70 37.40,33.20 17.10,33.20" fill="#F4F5F2" />
<polygon points="64.85,22.70 87.53,22.70 82.90,33.20 62.60,33.20" fill="#F4F5F2" />
<polygon points="18.95,37.40 38.30,37.40 40.55,47.90 23.57,47.90" fill="#F4F5F2" />
<polygon points="61.70,37.40 81.05,37.40 76.42,47.90 59.45,47.90" fill="#F4F5F2" />
<polygon points="25.42,52.10 41.45,52.10 43.70,62.60 30.05,62.60" fill="#F4F5F2" />
<polygon points="58.55,52.10 74.58,52.10 69.95,62.60 56.30,62.60" fill="#F4F5F2" />
<polygon points="31.90,66.80 44.60,66.80 46.85,77.30 36.52,77.30" fill="#F4F5F2" />
<polygon points="55.40,66.80 68.10,66.80 63.48,77.30 53.15,77.30" fill="#F4F5F2" />
<polygon points="38.38,81.50 61.62,81.50 57.00,92.00 43.00,92.00" fill="#14B8A6" /></svg>
